<?xml version="1.0" standalone="no"?>
<!DOCTYPE svg PUBLIC "-//W3C//DTD SVG 20010904//EN"
 "http://www.w3.org/TR/2001/REC-SVG-20010904/DTD/svg10.dtd">
<svg version="1.0" xmlns="http://www.w3.org/2000/svg"
 width="1200.000000pt" height="1200.000000pt" viewBox="0 0 1200.000000 1200.000000"
 preserveAspectRatio="xMidYMid meet">
<metadata>
Created by potrace 1.14, written by Peter Selinger 2001-2017
</metadata>
<g transform="translate(0.000000,1200.000000) scale(0.100000,-0.100000)"
fill="#000000" stroke="none">
<path d="M5475 10733 c-71 -21 -135 -67 -175 -126 -19 -29 -39 -56 -43 -62
-28 -35 -167 -248 -167 -255 0 -5 -3 -10 -8 -12 -4 -1 -44 -59 -89 -128 -46
-69 -88 -131 -95 -139 -7 -8 -24 -33 -38 -57 -23 -38 -194 -295 -213 -319 -30
-39 -299 -444 -303 -457 -4 -10 -10 -18 -15 -18 -5 0 -9 -6 -9 -14 0 -8 -3
-16 -7 -18 -9 -3 -479 -701 -503 -745 -8 -16 -18 -30 -21 -33 -3 -3 -35 -48
-69 -100 -35 -52 -68 -96 -72 -98 -4 -2 -8 -7 -8 -12 0 -7 -482 -733 -507
-765 -5 -5 -24 -35 -43 -65 -19 -30 -40 -61 -47 -68 -7 -7 -13 -17 -13 -22 0
-5 -6 -15 -13 -22 -10 -11 -231 -336 -262 -387 -16 -26 -49 -75 -58 -86 -4 -5
-22 -32 -40 -60 -17 -27 -37 -56 -44 -63 -6 -6 -15 -21 -18 -32 -3 -11 -10
-20 -14 -20 -5 0 -14 -13 -21 -30 -7 -16 -16 -30 -21 -30 -4 0 -11 -9 -14 -20
-3 -11 -12 -26 -18 -33 -7 -6 -75 -107 -152 -222 -77 -116 -143 -211 -147
-213 -5 -2 -8 -8 -8 -13 0 -8 -115 -184 -130 -199 -3 -3 -16 -27 -30 -55 -37
-74 -36 -188 3 -267 25 -51 71 -102 123 -135 10 -7 89 -60 174 -118 85 -57
173 -114 195 -124 22 -11 53 -34 68 -50 16 -17 32 -31 36 -31 4 0 14 -11 21
-25 7 -14 15 -23 17 -21 3 2 21 -14 41 -37 45 -50 370 -377 376 -377 2 0 505
-501 1117 -1114 713 -713 1134 -1126 1169 -1148 88 -56 170 -82 295 -93 11 0
24 1 28 3 5 2 28 5 52 7 63 4 148 33 216 74 45 27 531 508 1965 1941 1048
1048 1922 1925 1942 1950 47 57 58 77 89 159 41 108 38 285 -6 386 -15 34 -31
69 -48 100 -9 17 -604 618 -1323 1337 -1048 1049 -1317 1312 -1358 1333 -72
36 -156 40 -242 13 l-65 -21 -1678 -1676 c-922 -922 -1680 -1678 -1684 -1681
-10 -8 50 83 69 106 10 11 18 23 18 27 0 3 30 50 68 105 37 54 72 106 77 115
42 66 473 705 482 715 7 7 13 17 13 22 0 5 6 15 13 22 6 7 75 108 151 223 77
116 143 212 148 213 4 2 8 8 8 13 0 9 384 585 420 629 11 14 20 31 20 38 0 6
5 12 10 12 6 0 10 6 10 13 0 7 11 24 25 39 14 15 25 29 25 32 0 10 81 130 93
138 7 4 8 8 4 8 -5 0 -2 7 5 15 27 30 38 44 38 50 0 8 44 69 53 73 4 2 7 8 7
14 0 9 58 99 70 108 4 3 9 10 11 15 6 15 322 488 337 503 6 7 12 17 12 22 0 5
6 15 13 22 23 25 57 77 57 88 0 5 4 10 9 10 5 0 13 9 16 20 3 11 12 26 19 32
22 24 326 486 326 497 0 6 4 11 8 11 5 0 9 6 10 13 1 6 5 30 10 52 21 100 -21
229 -98 293 -55 47 -438 293 -468 301 -63 17 -125 19 -177 4z"/>
<path d="M5305 1760 c-3 -6 1 -7 9 -4 18 7 21 14 7 14 -6 0 -13 -4 -16 -10z"/>
<path d="M7595 1681 c-3 -5 -2 -12 3 -15 5 -3 9 1 9 9 0 17 -3 19 -12 6z"/>
<path d="M6353 1605 c0 -8 4 -12 9 -9 5 3 6 10 3 15 -9 13 -12 11 -12 -6z"/>
<path d="M5393 1595 c0 -8 4 -12 9 -9 5 3 6 10 3 15 -9 13 -12 11 -12 -6z"/>
<path d="M5469 1443 c-13 -16 -12 -17 4 -4 9 7 17 15 17 17 0 8 -8 3 -21 -13z"/>
</g>
</svg>
